{
	"asset":{
		"generator":"Khronos glTF Blender I/O v4.0.44",
		"version":"2.0"
	},
	"scene":0,
	"scenes":[
		{
			"name":"Scene",
			"nodes":[
				0
			]
		}
	],
	"nodes":[
		{
			"mesh":0,
			"name":"chessboard",
			"scale":[
				0.20000000298023224,
				0.29999998211860657,
				0.20000000298023224
			]
		}
	],
	"materials":[
		{
			"doubleSided":true,
			"name":"BlackSquare",
			"pbrMetallicRoughness":{
				"baseColorFactor":[
					0,
					0,
					0,
					1
				],
				"metallicFactor":0,
				"roughnessFactor":0.5
			}
		},
		{
			"doubleSided":true,
			"name":"WhiteSquare",
			"pbrMetallicRoughness":{
				"baseColorFactor":[
					0.800000011920929,
					0.800000011920929,
					0.800000011920929,
					1
				],
				"metallicFactor":0,
				"roughnessFactor":0.5
			}
		}
	],
	"meshes":[
		{
			"name":"Plane",
			"primitives":[
				{
					"attributes":{
						"POSITION":0,
						"NORMAL":1,
						"TEXCOORD_0":2
					},
					"indices":3,
					"material":0
				},
				{
					"attributes":{
						"POSITION":4,
						"NORMAL":5,
						"TEXCOORD_0":6
					},
					"indices":7,
					"material":1
				}
			]
		}
	],
	"accessors":[
		{
			"bufferView":0,
			"componentType":5126,
			"count":36047,
			"max":[
				1,
				0.10000000149011612,
				1
			],
			"min":[
				-1,
				0,
				-1
			],
			"type":"VEC3"
		},
		{
			"bufferView":1,
			"componentType":5126,
			"count":36047,
			"type":"VEC3"
		},
		{
			"bufferView":2,
			"componentType":5126,
			"count":36047,
			"type":"VEC2"
		},
		{
			"bufferView":3,
			"componentType":5123,
			"count":216000,
			"type":"SCALAR"
		},
		{
			"bufferView":4,
			"componentType":5126,
			"count":36047,
			"max":[
				1,
				0.10000000149011612,
				1
			],
			"min":[
				-1,
				0,
				-1
			],
			"type":"VEC3"
		},
		{
			"bufferView":5,
			"componentType":5126,
			"count":36047,
			"type":"VEC3"
		},
		{
			"bufferView":6,
			"componentType":5126,
			"count":36047,
			"type":"VEC2"
		},
		{
			"bufferView":7,
			"componentType":5123,
			"count":216000,
			"type":"SCALAR"
		}
	],
	"bufferViews":[
		{
			"buffer":0,
			"byteLength":432564,
			"byteOffset":0,
			"target":34962
		},
		{
			"buffer":0,
			"byteLength":432564,
			"byteOffset":432564,
			"target":34962
		},
		{
			"buffer":0,
			"byteLength":288376,
			"byteOffset":865128,
			"target":34962
		},
		{
			"buffer":0,
			"byteLength":432000,
			"byteOffset":1153504,
			"target":34963
		},
		{
			"buffer":0,
			"byteLength":432564,
			"byteOffset":1585504,
			"target":34962
		},
		{
			"buffer":0,
			"byteLength":432564,
			"byteOffset":2018068,
			"target":34962
		},
		{
			"buffer":0,
			"byteLength":288376,
			"byteOffset":2450632,
			"target":34962
		},
		{
			"buffer":0,
			"byteLength":432000,
			"byteOffset":2739008,
			"target":34963
		}
	],
	"buffers":[
		{
			"byteLength":3171008,
			"uri":"scene.bin"
		}
	]
}
